<?xml version="1.0" encoding="UTF-8"?>
<svg id="vestido" xmlns="http://www.w3.org/2000/svg" version="1.1" xmlns:xlink="http://www.w3.org/1999/xlink" viewBox="0 0 179 187">
  <!-- Generator: Adobe Illustrator 30.8.1, SVG Export Plug-In . SVG Version: 2.1.4 Build 1)  -->
  <defs>
    <style>
      .st0 {
        fill: url(#Degradado_sin_nombre_31);
        stroke: url(#Degradado_sin_nombre_32);
        stroke-miterlimit: 10;
      }

      .st1 {
        fill: url(#Degradado_sin_nombre_3);
      }
    </style>
    <linearGradient id="Degradado_sin_nombre_3" data-name="Degradado sin nombre 3" x1="40" y1="107.75" x2="139" y2="107.75" gradientUnits="userSpaceOnUse">
      <stop offset="0" stop-color="#bf9f56"/>
      <stop offset=".15" stop-color="#bf9f56"/>
      <stop offset="1" stop-color="#bf9f56"/>
    </linearGradient>
    <linearGradient id="Degradado_sin_nombre_31" data-name="Degradado sin nombre 3" x1="62.01" y1="33.65" x2="117.05" y2="33.65" xlink:href="#Degradado_sin_nombre_3"/>
    <linearGradient id="Degradado_sin_nombre_32" data-name="Degradado sin nombre 3" x1="61.51" y1="33.65" x2="117.55" y2="33.65" xlink:href="#Degradado_sin_nombre_3"/>
  </defs>
  <path class="st1" d="M101.1,78.2c.2-15.6,4.3-24.2,4.4-24.3.4-.8.1-1.7-.6-2.1-2-1.2-4.1-1.8-6.2-1.8-4.3,0-7.5,2.7-9.2,4.5-1.7-1.9-4.9-4.5-9.2-4.5-2.1,0-4.1.6-6.2,1.8-.7.4-1,1.4-.6,2.1,0,.1,4.2,8.6,4.4,24.3-5.4,3.8-37.9,28.6-37.9,73.9,0,2.5,13,7.4,13.1,7.5,7.4,2.7,19.7,5.9,36.4,5.9s29-3.2,36.4-5.9c.1-.1,13.1-4.9,13.1-7.5,0-45.3-32.5-70.1-37.9-73.9h0ZM77.1,53.9c1.1-.5,2.2-.7,3.2-.7,4.7,0,7.8,4.8,7.8,4.8.6.9,2.2.9,2.8,0,0,0,3.1-4.8,7.8-4.8,1.1,0,2.1.2,3.2.7-1.2,3.1-3.8,11.1-4.1,23.5h-16.6c-.2-12.4-2.8-20.4-4.1-23.5ZM89.5,162.3c-27.8,0-43.2-9-46.2-11,.4-44.1,32.8-67.9,36.8-70.6h18.9c3.9,2.7,36.4,26.4,36.8,70.6-3.1,1.9-18.5,11-46.3,11h0Z"/>
  <path class="st0" d="M116.6,33.5c0-1.3.1-2.5.2-3.7.3-2.6.5-4.9-.9-6.5-1.1-1.2-3.1-1.8-6.2-1.8-6.6,0-12.5,2.6-15.4,6.7h0c-.6-.4-1.4-.7-2.2-.7h-5.1c-.8,0-1.6.3-2.2.7h0c-3-4.1-8.9-6.6-15.5-6.5-3.1,0-5.1.6-6.2,1.9-1.4,1.6-1.2,3.9-.8,6.5.1,1.2.3,2.4.3,3.7s-.1,2.5-.3,3.7c-.3,2.6-.5,4.9.9,6.5,1.1,1.2,3.1,1.8,6.2,1.8,6.5,0,12.3-2.6,15.3-6.6h0c.7.5,1.5.8,2.3.7h5.1c.9,0,1.7-.3,2.3-.8h0c3,4,8.9,6.4,15.4,6.4,3.1,0,5.1-.6,6.2-1.9,1.4-1.6,1.1-3.9.8-6.5-.1-1.1-.2-2.3-.2-3.6h0ZM82.9,38.8c-2.8,3.3-7.9,5.3-13.5,5.4-2.6,0-4.2-.4-5-1.2-.9-1-.7-2.8-.5-5.2.1-1.2.3-2.5.3-3.9s-.2-2.7-.3-3.9c-.3-2.3-.5-4.1.4-5.2.8-.9,2.4-1.3,5-1.3,5.7,0,11,2,13.7,5.3-.6.8-.9,1.8-.9,2.8v4.6c0,.9.3,1.8.8,2.6h0ZM92.1,38.3h-5.1c-1.2,0-2.2-1-2.2-2.2v-4.6c0-1.2,1-2.2,2.2-2.2h5.1c1.2,0,2.2,1,2.2,2.2v4.6c0,1.2-1,2.2-2.2,2.2ZM115.2,37.4c.3,2.3.5,4.1-.4,5.2-.8.9-2.4,1.3-5,1.3-5.7,0-10.8-1.9-13.6-5.2.5-.8.8-1.7.8-2.7v-4.6c0-1-.3-2-.9-2.8,2.7-3.3,8-5.5,13.6-5.5,2.6,0,4.2.4,5,1.2.9,1,.7,2.8.5,5.2-.1,1.2-.3,2.5-.3,3.9s.1,2.8.3,4h0Z"/>
</svg>